<svg width="60" height="60" viewBox="0 0 60 60" fill="none" xmlns="http://www.w3.org/2000/svg">
<g clip-path="url(#clip0_9_17)">
<path d="M26.0996 43.002C25.4256 43.002 24.8014 42.6223 24.4951 42.0102L19.623 32.2756L16.9111 36.4491C16.5799 36.9585 16.0136 37.266 15.4059 37.266H1.79508C0.803672 37.2659 0 36.4622 0 35.4708C0 34.4794 0.803672 33.6757 1.79508 33.6757H14.4318L18.3205 27.6913C18.6713 27.1518 19.2852 26.8426 19.9263 26.8771C20.569 26.9132 21.1429 27.2905 21.4309 27.8659L25.5772 36.1507L29.7875 20.1847C29.982 19.4477 30.6206 18.9137 31.3805 18.8531C32.1393 18.7923 32.8556 19.2184 33.1644 19.9152L36.2386 26.8534L38.826 22.8428C39.1543 22.3341 39.7168 22.0249 40.3223 22.0208C40.9364 22.0147 41.4945 22.3182 41.8296 22.8225L44.5207 26.874H58.205C59.1964 26.874 60.0001 27.6777 60.0001 28.6691C60.0001 29.6605 59.1964 30.4642 58.205 30.4642H43.558C42.9567 30.4642 42.3954 30.1631 42.0627 29.6624L40.3562 27.0932L37.4528 31.5939C37.0952 32.1482 36.4617 32.462 35.8045 32.4104C35.1469 32.3591 34.5704 31.9511 34.3031 31.348L31.9543 26.0469L27.836 41.6645C27.6456 42.3866 27.0279 42.9155 26.2852 42.9922C26.2229 42.9987 26.1612 43.002 26.0996 43.002Z" fill="#E25F5F"/>
<path d="M29.0479 56.0282C28.787 56.0282 28.5261 55.9715 28.2843 55.8577C19.7217 51.8329 11.1263 44.4018 5.85228 36.4643C5.48607 35.9134 5.45267 35.2056 5.76544 34.6226C6.07798 34.0396 6.68595 33.6758 7.34736 33.6758H14.4318L18.3206 27.6913C18.6712 27.1518 19.2847 26.841 19.9264 26.8771C20.569 26.9132 21.1429 27.2905 21.431 27.8659L25.5773 36.1507L29.7876 20.1847C29.982 19.4477 30.6207 18.9137 31.3805 18.8531C32.1393 18.7923 32.8557 19.2184 33.1645 19.9152L36.2386 26.8534L38.826 22.8428C39.1544 22.3341 39.7169 22.0249 40.3224 22.0208C40.3264 22.0208 40.3305 22.0208 40.3345 22.0208C40.9354 22.0208 41.497 22.3216 41.8298 22.8226L45.0535 27.6761C45.602 28.502 45.3773 29.616 44.5516 30.1645C43.7255 30.713 42.6115 30.4882 42.0631 29.6626L40.3564 27.0934L37.4531 31.5941C37.0953 32.1484 36.461 32.4622 35.8048 32.4107C35.1472 32.3593 34.5707 31.9513 34.3034 31.3481L31.9546 26.047L27.8363 41.6646C27.6459 42.3867 27.0282 42.9156 26.2854 42.9924C25.5414 43.0686 24.8296 42.6781 24.4954 42.0103L19.6233 32.2757L16.9114 36.4492C16.5802 36.9586 16.0138 37.2661 15.4062 37.2661H10.8638C15.6167 43.3199 22.4127 48.9464 29.048 52.2397C35.2186 49.1763 41.6341 44.0397 46.3508 38.3623C46.9844 37.5996 48.1158 37.4951 48.8785 38.1286C49.641 38.7621 49.7457 39.8938 49.1122 40.6563C43.8808 46.9535 36.6657 52.6361 29.8116 55.8578C29.5697 55.9715 29.3086 56.0282 29.0479 56.0282Z" fill="#E25F5F"/>
<path d="M26.0997 43.002C25.4256 43.002 24.8015 42.6223 24.4952 42.0104L19.6231 32.2758L16.9111 36.4493C16.58 36.9587 16.0136 37.2662 15.406 37.2662H7.34735C6.74618 37.2662 6.18485 36.9654 5.85228 36.4645C3.35407 32.705 1.72481 29.0243 1.00903 25.5251C0.734932 24.1805 0.595947 22.8641 0.595947 21.6117C0.595947 11.8852 8.41095 3.97208 18.0169 3.97208C22.0825 3.97208 25.9399 5.3761 29.048 7.95774C32.1562 5.3761 36.0135 3.97208 40.0791 3.97208C49.6851 3.97208 57.5 11.8852 57.5 21.6117C57.5 22.8647 57.361 24.1809 57.0871 25.5241C56.837 26.7469 56.466 28.0173 55.9843 29.3005C55.7215 30.0007 55.0517 30.4645 54.3038 30.4645H43.5583C42.957 30.4645 42.3957 30.1635 42.063 29.6627L40.3564 27.0935L37.4529 31.5942C37.0954 32.1485 36.4619 32.4624 35.8047 32.4108C35.147 32.3595 34.5706 31.9514 34.3033 31.3483L31.9545 26.0472L27.8362 41.6647C27.6458 42.3868 27.0281 42.9157 26.2853 42.9925C26.223 42.9987 26.1611 43.002 26.0997 43.002ZM19.8255 26.8744C19.859 26.8744 19.8926 26.8753 19.9264 26.8773C20.569 26.9134 21.1429 27.2907 21.4309 27.8661L25.5773 36.1509L29.7876 20.185C29.982 19.448 30.6207 18.914 31.3805 18.8534C32.1393 18.7925 32.8557 19.2186 33.1645 19.9154L36.2386 26.8536L38.826 22.843C39.1544 22.3343 39.7169 22.0252 40.3224 22.0211C40.9365 22.015 41.4947 22.3185 41.8297 22.8227L44.5208 26.8743H53.0267C53.2505 26.1691 53.4322 25.4768 53.5695 24.8053C53.7953 23.6985 53.9098 22.6238 53.9098 21.6114C53.9098 13.8643 47.7054 7.56176 40.0791 7.56176C36.4024 7.56176 32.9374 9.01465 30.3231 11.6527C29.986 11.9929 29.5271 12.1842 29.0481 12.1842C28.5692 12.1842 28.1103 11.9929 27.7731 11.6527C25.1588 9.01465 21.6939 7.56176 18.0172 7.56176C10.3907 7.56176 4.18622 13.8643 4.18622 21.6114C4.18622 22.6234 4.30071 23.6982 4.52677 24.8064C5.0997 27.6082 6.37599 30.5888 8.32341 33.6758H14.4319L18.3207 27.6913C18.6528 27.1801 19.2202 26.8744 19.8255 26.8744Z" fill="#E25F5F"/>
</g>
<defs>
<clipPath id="clip0_9_17">
<rect width="60" height="60" fill="white"/>
</clipPath>
</defs>
</svg>
